# xmcd
#
# Track frame offsets:
#	150
#	19563
#	47294
#	60060
#	77583
#	95590
#	112714
#	134175
#	151480
#	171801
#
# Disc length: 2804 seconds
#
# Revision: 0
# Processed by: cddbd v1.5.2PL0 Copyright (c) Steve Scherf et al.
# Submitted via: EasyCDDAExtractor 2010.4.0.0
#
DISCID=6b0af20a
DTITLE=Chris Bergson Band -  Imitate The Sun
DYEAR=2011
DGENRE=Blues
TTITLE0=Goin' Home
TTITLE1=Imitate the Sun
TTITLE2=Shattered Avenue
TTITLE3=Hello Bertha
TTITLE4=Down In The Bottom
TTITLE5=Laying It Down In White
TTITLE6=You've Been A Good Old Wagon
TTITLE7=Mr Jackson
TTITLE8=Dust My Broom
TTITLE9=Standing in the Doorway
EXTD=
EXTT0=
EXTT1=
EXTT2=
EXTT3=
EXTT4=
EXTT5=
EXTT6=
EXTT7=
EXTT8=
EXTT9=
PLAYORDER=
